<svg xmlns="http://www.w3.org/2000/svg" width="280" height="35"><text x="0" y="14" font-family="-apple-system,BlinkMacSystemFont,Segoe UI,Helvetica,Arial,sans-serif" font-size="13" font-weight="600" fill="#3572A5">Programming</text><clipPath id="c"><rect y="23" width="280" height="12" rx="4"/></clipPath><g clip-path="url(#c)"><rect x="0.00" y="23" width="93.98" height="12" fill="#5e5086"/><rect x="93.98" y="23" width="62.80" height="12" fill="#f34b7d"/><rect x="156.78" y="23" width="58.01" height="12" fill="#315665"/><rect x="214.79" y="23" width="19.44" height="12" fill="#000080"/><rect x="234.24" y="23" width="17.69" height="12" fill="#1a7f37"/><rect x="251.93" y="23" width="14.75" height="12" fill="#555555"/><rect x="266.67" y="23" width="4.65" height="12" fill="#FEFE00"/><rect x="271.33" y="23" width="1.82" height="12" fill="#89e051"/><rect x="273.14" y="23" width="1.64" height="12" fill="#c065db"/><rect x="274.78" y="23" width="1.14" height="12" fill="#9a6700"/><rect x="275.93" y="23" width="1.06" height="12" fill="#0550ae"/><rect x="276.99" y="23" width="0.88" height="12" fill="#dea584"/><rect x="277.87" y="23" width="2.13" height="12" fill="#8b949e"/><rect x="280.00" y="23" width="0.00" height="12" fill="#808080" fill-opacity="0.22"/></g></svg>