<svg xmlns="http://www.w3.org/2000/svg" width="280" height="35"><text x="0" y="14" font-family="-apple-system,BlinkMacSystemFont,Segoe UI,Helvetica,Arial,sans-serif" font-size="13" font-weight="600" fill="#3572A5">Programming</text><clipPath id="c"><rect y="23" width="280" height="12" rx="4"/></clipPath><g clip-path="url(#c)"><rect x="0.00" y="23" width="80.97" height="12" fill="#f34b7d"/><rect x="80.97" y="23" width="74.80" height="12" fill="#315665"/><rect x="155.77" y="23" width="38.35" height="12" fill="#5e5086"/><rect x="194.12" y="23" width="28.89" height="12" fill="#000080"/><rect x="223.01" y="23" width="22.81" height="12" fill="#1a7f37"/><rect x="245.82" y="23" width="19.01" height="12" fill="#555555"/><rect x="264.83" y="23" width="6.00" height="12" fill="#FEFE00"/><rect x="270.83" y="23" width="2.10" height="12" fill="#c065db"/><rect x="272.93" y="23" width="1.37" height="12" fill="#0550ae"/><rect x="274.30" y="23" width="1.14" height="12" fill="#dea584"/><rect x="275.44" y="23" width="1.01" height="12" fill="#89e051"/><rect x="276.44" y="23" width="0.86" height="12" fill="#f1e05a"/><rect x="277.30" y="23" width="2.70" height="12" fill="#8b949e"/><rect x="280.00" y="23" width="0.00" height="12" fill="#808080" fill-opacity="0.22"/></g></svg>