<svg xmlns="http://www.w3.org/2000/svg" width="280" height="35"><text x="0" y="14" font-family="-apple-system,BlinkMacSystemFont,Segoe UI,Helvetica,Arial,sans-serif" font-size="13" font-weight="600" fill="#3572A5">Programming</text><clipPath id="c"><rect y="23" width="280" height="12" rx="4"/></clipPath><g clip-path="url(#c)"><rect x="0.00" y="23" width="95.84" height="12" fill="#5e5086"/><rect x="95.84" y="23" width="57.40" height="12" fill="#f34b7d"/><rect x="153.24" y="23" width="51.31" height="12" fill="#315665"/><rect x="204.55" y="23" width="21.10" height="12" fill="#ef7a08"/><rect x="225.65" y="23" width="17.77" height="12" fill="#000080"/><rect x="243.42" y="23" width="16.17" height="12" fill="#1a7f37"/><rect x="259.58" y="23" width="13.48" height="12" fill="#555555"/><rect x="273.06" y="23" width="2.02" height="12" fill="#89e051"/><rect x="275.08" y="23" width="1.08" height="12" fill="#9a6700"/><rect x="276.16" y="23" width="0.81" height="12" fill="#dea584"/><rect x="276.97" y="23" width="0.77" height="12" fill="#c065db"/><rect x="277.74" y="23" width="0.58" height="12" fill="#f1e05a"/><rect x="278.31" y="23" width="1.69" height="12" fill="#8b949e"/></g></svg>