<svg xmlns="http://www.w3.org/2000/svg" width="280" height="35"><text x="0" y="14" font-family="-apple-system,BlinkMacSystemFont,Segoe UI,Helvetica,Arial,sans-serif" font-size="13" font-weight="600" fill="#3572A5">Programming</text><clipPath id="c"><rect y="23" width="280" height="12" rx="4"/></clipPath><g clip-path="url(#c)"><rect x="0.00" y="23" width="76.44" height="12" fill="#f34b7d"/><rect x="76.44" y="23" width="70.61" height="12" fill="#315665"/><rect x="147.04" y="23" width="56.04" height="12" fill="#5e5086"/><rect x="203.08" y="23" width="23.22" height="12" fill="#000080"/><rect x="226.30" y="23" width="21.53" height="12" fill="#1a7f37"/><rect x="247.83" y="23" width="17.95" height="12" fill="#555555"/><rect x="265.78" y="23" width="5.66" height="12" fill="#FEFE00"/><rect x="271.44" y="23" width="1.98" height="12" fill="#c065db"/><rect x="273.43" y="23" width="1.30" height="12" fill="#0550ae"/><rect x="274.72" y="23" width="1.07" height="12" fill="#dea584"/><rect x="275.79" y="23" width="0.88" height="12" fill="#89e051"/><rect x="276.67" y="23" width="0.77" height="12" fill="#f1e05a"/><rect x="277.44" y="23" width="2.56" height="12" fill="#8b949e"/></g></svg>