<svg xmlns="http://www.w3.org/2000/svg" width="280" height="35"><text x="0" y="14" font-family="-apple-system,BlinkMacSystemFont,Segoe UI,Helvetica,Arial,sans-serif" font-size="13" font-weight="600" fill="#3572A5">Programming</text><clipPath id="c"><rect y="23" width="280" height="12" rx="4"/></clipPath><g clip-path="url(#c)"><rect x="0.00" y="23" width="102.53" height="12" fill="#5e5086"/><rect x="102.53" y="23" width="61.89" height="12" fill="#f34b7d"/><rect x="164.42" y="23" width="57.17" height="12" fill="#315665"/><rect x="221.59" y="23" width="19.16" height="12" fill="#000080"/><rect x="240.75" y="23" width="17.43" height="12" fill="#1a7f37"/><rect x="258.18" y="23" width="14.53" height="12" fill="#555555"/><rect x="272.72" y="23" width="2.01" height="12" fill="#89e051"/><rect x="274.72" y="23" width="1.16" height="12" fill="#9a6700"/><rect x="275.88" y="23" width="1.09" height="12" fill="#c065db"/><rect x="276.97" y="23" width="0.87" height="12" fill="#dea584"/><rect x="277.84" y="23" width="0.62" height="12" fill="#f1e05a"/><rect x="278.47" y="23" width="0.23" height="12" fill="#DA3434"/><rect x="278.70" y="23" width="1.30" height="12" fill="#8b949e"/></g></svg>