<svg xmlns="http://www.w3.org/2000/svg" width="280" height="35"><text x="0" y="14" font-family="-apple-system,BlinkMacSystemFont,Segoe UI,Helvetica,Arial,sans-serif" font-size="13" font-weight="600" fill="#3572A5">Programming</text><clipPath id="c"><rect y="23" width="280" height="12" rx="4"/></clipPath><g clip-path="url(#c)"><rect x="0.00" y="23" width="56.27" height="12" fill="#5e5086"/><rect x="56.27" y="23" width="55.59" height="12" fill="#f1e05a"/><rect x="111.86" y="23" width="45.71" height="12" fill="#9a6700"/><rect x="157.57" y="23" width="33.01" height="12" fill="#f34b7d"/><rect x="190.58" y="23" width="28.73" height="12" fill="#ef7a08"/><rect x="219.31" y="23" width="25.22" height="12" fill="#315665"/><rect x="244.53" y="23" width="12.06" height="12" fill="#000080"/><rect x="256.59" y="23" width="9.30" height="12" fill="#1a7f37"/><rect x="265.89" y="23" width="7.75" height="12" fill="#555555"/><rect x="273.64" y="23" width="1.29" height="12" fill="#89e051"/><rect x="274.92" y="23" width="1.18" height="12" fill="#FEFE00"/><rect x="276.11" y="23" width="0.92" height="12" fill="#c065db"/><rect x="277.02" y="23" width="2.98" height="12" fill="#8b949e"/></g></svg>