<svg xmlns="http://www.w3.org/2000/svg" width="280" height="35"><text x="0" y="14" font-family="-apple-system,BlinkMacSystemFont,Segoe UI,Helvetica,Arial,sans-serif" font-size="13" font-weight="600" fill="#3572A5">Programming</text><clipPath id="c"><rect y="23" width="280" height="12" rx="4"/></clipPath><g clip-path="url(#c)"><rect x="0.00" y="23" width="55.90" height="12" fill="#5e5086"/><rect x="55.90" y="23" width="55.50" height="12" fill="#f1e05a"/><rect x="111.40" y="23" width="45.63" height="12" fill="#9a6700"/><rect x="157.04" y="23" width="32.96" height="12" fill="#f34b7d"/><rect x="190.00" y="23" width="28.68" height="12" fill="#ef7a08"/><rect x="218.68" y="23" width="25.95" height="12" fill="#315665"/><rect x="244.63" y="23" width="12.04" height="12" fill="#000080"/><rect x="256.67" y="23" width="9.28" height="12" fill="#1a7f37"/><rect x="265.95" y="23" width="7.74" height="12" fill="#555555"/><rect x="273.69" y="23" width="1.28" height="12" fill="#89e051"/><rect x="274.97" y="23" width="1.18" height="12" fill="#FEFE00"/><rect x="276.15" y="23" width="0.87" height="12" fill="#c065db"/><rect x="277.03" y="23" width="2.97" height="12" fill="#8b949e"/></g></svg>