<svg xmlns="http://www.w3.org/2000/svg" width="280" height="35"><text x="0" y="14" font-family="-apple-system,BlinkMacSystemFont,Segoe UI,Helvetica,Arial,sans-serif" font-size="13" font-weight="600" fill="#3572A5">Programming</text><clipPath id="c"><rect y="23" width="280" height="12" rx="4"/></clipPath><g clip-path="url(#c)"><rect x="0.00" y="23" width="91.57" height="12" fill="#5e5086"/><rect x="91.57" y="23" width="63.73" height="12" fill="#f34b7d"/><rect x="155.30" y="23" width="58.87" height="12" fill="#315665"/><rect x="214.17" y="23" width="19.73" height="12" fill="#000080"/><rect x="233.90" y="23" width="17.95" height="12" fill="#1a7f37"/><rect x="251.85" y="23" width="14.96" height="12" fill="#555555"/><rect x="266.81" y="23" width="4.72" height="12" fill="#FEFE00"/><rect x="271.53" y="23" width="1.67" height="12" fill="#c065db"/><rect x="273.20" y="23" width="1.52" height="12" fill="#89e051"/><rect x="274.72" y="23" width="1.15" height="12" fill="#9a6700"/><rect x="275.87" y="23" width="1.08" height="12" fill="#0550ae"/><rect x="276.95" y="23" width="0.89" height="12" fill="#dea584"/><rect x="277.84" y="23" width="2.16" height="12" fill="#8b949e"/></g></svg>