<svg xmlns="http://www.w3.org/2000/svg" width="280" height="35"><text x="0" y="14" font-family="-apple-system,BlinkMacSystemFont,Segoe UI,Helvetica,Arial,sans-serif" font-size="13" font-weight="600" fill="#3572A5">Programming</text><clipPath id="c"><rect y="23" width="280" height="12" rx="4"/></clipPath><g clip-path="url(#c)"><rect x="0.00" y="23" width="92.80" height="12" fill="#5e5086"/><rect x="92.80" y="23" width="55.21" height="12" fill="#f34b7d"/><rect x="148.01" y="23" width="41.41" height="12" fill="#315665"/><rect x="189.42" y="23" width="38.34" height="12" fill="#ef7a08"/><rect x="227.76" y="23" width="17.09" height="12" fill="#000080"/><rect x="244.85" y="23" width="15.55" height="12" fill="#1a7f37"/><rect x="260.40" y="23" width="12.96" height="12" fill="#555555"/><rect x="273.37" y="23" width="1.95" height="12" fill="#89e051"/><rect x="275.31" y="23" width="1.05" height="12" fill="#9a6700"/><rect x="276.36" y="23" width="0.78" height="12" fill="#dea584"/><rect x="277.13" y="23" width="0.69" height="12" fill="#c065db"/><rect x="277.82" y="23" width="0.56" height="12" fill="#f1e05a"/><rect x="278.38" y="23" width="1.62" height="12" fill="#8b949e"/><rect x="280.00" y="23" width="0.00" height="12" fill="#808080" fill-opacity="0.22"/></g></svg>