<svg xmlns="http://www.w3.org/2000/svg" width="280" height="35"><text x="0" y="14" font-family="-apple-system,BlinkMacSystemFont,Segoe UI,Helvetica,Arial,sans-serif" font-size="13" font-weight="600" fill="#3572A5">Programming</text><clipPath id="c"><rect y="23" width="280" height="12" rx="4"/></clipPath><g clip-path="url(#c)"><rect x="0.00" y="23" width="96.78" height="12" fill="#5e5086"/><rect x="96.78" y="23" width="58.42" height="12" fill="#f34b7d"/><rect x="155.20" y="23" width="53.96" height="12" fill="#315665"/><rect x="209.15" y="23" width="18.09" height="12" fill="#000080"/><rect x="227.24" y="23" width="16.45" height="12" fill="#1a7f37"/><rect x="243.70" y="23" width="16.02" height="12" fill="#ef7a08"/><rect x="259.72" y="23" width="13.72" height="12" fill="#555555"/><rect x="273.44" y="23" width="1.89" height="12" fill="#89e051"/><rect x="275.33" y="23" width="1.09" height="12" fill="#9a6700"/><rect x="276.42" y="23" width="0.82" height="12" fill="#dea584"/><rect x="277.24" y="23" width="0.73" height="12" fill="#c065db"/><rect x="277.97" y="23" width="0.59" height="12" fill="#f1e05a"/><rect x="278.56" y="23" width="1.44" height="12" fill="#8b949e"/></g></svg>