<svg xmlns="http://www.w3.org/2000/svg" width="280" height="35"><text x="0" y="14" font-family="-apple-system,BlinkMacSystemFont,Segoe UI,Helvetica,Arial,sans-serif" font-size="13" font-weight="600" fill="#3572A5">Programming</text><clipPath id="c"><rect y="23" width="280" height="12" rx="4"/></clipPath><g clip-path="url(#c)"><rect x="0.00" y="23" width="56.40" height="12" fill="#f1e05a"/><rect x="56.40" y="23" width="56.32" height="12" fill="#5e5086"/><rect x="112.72" y="23" width="46.39" height="12" fill="#9a6700"/><rect x="159.11" y="23" width="33.51" height="12" fill="#f34b7d"/><rect x="192.62" y="23" width="29.16" height="12" fill="#ef7a08"/><rect x="221.77" y="23" width="24.24" height="12" fill="#315665"/><rect x="246.01" y="23" width="10.37" height="12" fill="#000080"/><rect x="256.38" y="23" width="9.44" height="12" fill="#1a7f37"/><rect x="265.82" y="23" width="7.87" height="12" fill="#555555"/><rect x="273.69" y="23" width="1.27" height="12" fill="#89e051"/><rect x="274.96" y="23" width="1.20" height="12" fill="#FEFE00"/><rect x="276.16" y="23" width="0.82" height="12" fill="#c065db"/><rect x="276.98" y="23" width="3.02" height="12" fill="#8b949e"/><rect x="280.00" y="23" width="0.00" height="12" fill="#808080" fill-opacity="0.22"/></g></svg>