<svg xmlns="http://www.w3.org/2000/svg" width="280" height="35"><text x="0" y="14" font-family="-apple-system,BlinkMacSystemFont,Segoe UI,Helvetica,Arial,sans-serif" font-size="13" font-weight="600" fill="#3572A5">Programming</text><clipPath id="c"><rect y="23" width="280" height="12" rx="4"/></clipPath><g clip-path="url(#c)"><rect x="0.00" y="23" width="93.56" height="12" fill="#5e5086"/><rect x="93.56" y="23" width="55.98" height="12" fill="#f34b7d"/><rect x="149.54" y="23" width="48.84" height="12" fill="#315665"/><rect x="198.38" y="23" width="28.62" height="12" fill="#ef7a08"/><rect x="227.00" y="23" width="17.33" height="12" fill="#000080"/><rect x="244.33" y="23" width="15.77" height="12" fill="#1a7f37"/><rect x="260.10" y="23" width="13.14" height="12" fill="#555555"/><rect x="273.25" y="23" width="1.97" height="12" fill="#89e051"/><rect x="275.22" y="23" width="1.05" height="12" fill="#9a6700"/><rect x="276.27" y="23" width="0.79" height="12" fill="#dea584"/><rect x="277.06" y="23" width="0.74" height="12" fill="#c065db"/><rect x="277.79" y="23" width="0.56" height="12" fill="#f1e05a"/><rect x="278.36" y="23" width="1.64" height="12" fill="#8b949e"/></g></svg>