<svg xmlns="http://www.w3.org/2000/svg" width="280" height="35"><text x="0" y="14" font-family="-apple-system,BlinkMacSystemFont,Segoe UI,Helvetica,Arial,sans-serif" font-size="13" font-weight="600" fill="#3572A5">Programming</text><clipPath id="c"><rect y="23" width="280" height="12" rx="4"/></clipPath><g clip-path="url(#c)"><rect x="0.00" y="23" width="80.33" height="12" fill="#f34b7d"/><rect x="80.33" y="23" width="74.20" height="12" fill="#315665"/><rect x="154.54" y="23" width="40.26" height="12" fill="#5e5086"/><rect x="194.80" y="23" width="28.66" height="12" fill="#000080"/><rect x="223.46" y="23" width="22.63" height="12" fill="#1a7f37"/><rect x="246.09" y="23" width="18.86" height="12" fill="#555555"/><rect x="264.95" y="23" width="5.95" height="12" fill="#FEFE00"/><rect x="270.90" y="23" width="2.08" height="12" fill="#c065db"/><rect x="272.98" y="23" width="1.36" height="12" fill="#0550ae"/><rect x="274.34" y="23" width="1.13" height="12" fill="#dea584"/><rect x="275.47" y="23" width="1.00" height="12" fill="#89e051"/><rect x="276.47" y="23" width="0.86" height="12" fill="#f1e05a"/><rect x="277.33" y="23" width="2.67" height="12" fill="#8b949e"/><rect x="280.00" y="23" width="0.00" height="12" fill="#808080" fill-opacity="0.22"/></g></svg>