<svg xmlns="http://www.w3.org/2000/svg" width="280" height="35"><text x="0" y="14" font-family="-apple-system,BlinkMacSystemFont,Segoe UI,Helvetica,Arial,sans-serif" font-size="13" font-weight="600" fill="#3572A5">Programming</text><clipPath id="c"><rect y="23" width="280" height="12" rx="4"/></clipPath><g clip-path="url(#c)"><rect x="0.00" y="23" width="101.98" height="12" fill="#5e5086"/><rect x="101.98" y="23" width="61.56" height="12" fill="#f34b7d"/><rect x="163.53" y="23" width="56.86" height="12" fill="#315665"/><rect x="220.40" y="23" width="19.06" height="12" fill="#000080"/><rect x="239.45" y="23" width="17.34" height="12" fill="#1a7f37"/><rect x="256.79" y="23" width="14.45" height="12" fill="#555555"/><rect x="271.25" y="23" width="1.99" height="12" fill="#89e051"/><rect x="273.24" y="23" width="1.61" height="12" fill="#c065db"/><rect x="274.85" y="23" width="1.15" height="12" fill="#9a6700"/><rect x="276.00" y="23" width="1.04" height="12" fill="#0550ae"/><rect x="277.05" y="23" width="0.86" height="12" fill="#dea584"/><rect x="277.91" y="23" width="0.62" height="12" fill="#f1e05a"/><rect x="278.53" y="23" width="1.47" height="12" fill="#8b949e"/></g></svg>