<svg xmlns="http://www.w3.org/2000/svg" width="280" height="35"><text x="0" y="14" font-family="-apple-system,BlinkMacSystemFont,Segoe UI,Helvetica,Arial,sans-serif" font-size="13" font-weight="600" fill="#3572A5">Programming</text><clipPath id="c"><rect y="23" width="280" height="12" rx="4"/></clipPath><g clip-path="url(#c)"><rect x="0.00" y="23" width="96.69" height="12" fill="#5e5086"/><rect x="96.69" y="23" width="61.88" height="12" fill="#f34b7d"/><rect x="158.57" y="23" width="57.16" height="12" fill="#315665"/><rect x="215.73" y="23" width="19.16" height="12" fill="#000080"/><rect x="234.89" y="23" width="17.43" height="12" fill="#1a7f37"/><rect x="252.32" y="23" width="14.53" height="12" fill="#555555"/><rect x="266.85" y="23" width="4.58" height="12" fill="#FEFE00"/><rect x="271.44" y="23" width="1.79" height="12" fill="#89e051"/><rect x="273.23" y="23" width="1.62" height="12" fill="#c065db"/><rect x="274.84" y="23" width="1.14" height="12" fill="#9a6700"/><rect x="275.99" y="23" width="1.05" height="12" fill="#0550ae"/><rect x="277.03" y="23" width="0.87" height="12" fill="#dea584"/><rect x="277.90" y="23" width="2.10" height="12" fill="#8b949e"/></g></svg>