<svg xmlns="http://www.w3.org/2000/svg" width="280" height="35"><text x="0" y="14" font-family="-apple-system,BlinkMacSystemFont,Segoe UI,Helvetica,Arial,sans-serif" font-size="13" font-weight="600" fill="#3572A5">Programming</text><clipPath id="c"><rect y="23" width="280" height="12" rx="4"/></clipPath><g clip-path="url(#c)"><rect x="0.00" y="23" width="55.57" height="12" fill="#5e5086"/><rect x="55.57" y="23" width="55.17" height="12" fill="#f1e05a"/><rect x="110.74" y="23" width="45.36" height="12" fill="#9a6700"/><rect x="156.10" y="23" width="32.77" height="12" fill="#f34b7d"/><rect x="188.87" y="23" width="28.51" height="12" fill="#ef7a08"/><rect x="217.38" y="23" width="27.52" height="12" fill="#315665"/><rect x="244.90" y="23" width="11.97" height="12" fill="#000080"/><rect x="256.87" y="23" width="9.23" height="12" fill="#1a7f37"/><rect x="266.10" y="23" width="7.69" height="12" fill="#555555"/><rect x="273.79" y="23" width="1.28" height="12" fill="#89e051"/><rect x="275.07" y="23" width="1.17" height="12" fill="#FEFE00"/><rect x="276.24" y="23" width="0.81" height="12" fill="#c065db"/><rect x="277.04" y="23" width="2.96" height="12" fill="#8b949e"/></g></svg>