<svg xmlns="http://www.w3.org/2000/svg" width="280" height="35"><text x="0" y="14" font-family="-apple-system,BlinkMacSystemFont,Segoe UI,Helvetica,Arial,sans-serif" font-size="13" font-weight="600" fill="#3572A5">Programming</text><clipPath id="c"><rect y="23" width="280" height="12" rx="4"/></clipPath><g clip-path="url(#c)"><rect x="0.00" y="23" width="56.55" height="12" fill="#5e5086"/><rect x="56.55" y="23" width="55.87" height="12" fill="#f1e05a"/><rect x="112.42" y="23" width="45.94" height="12" fill="#9a6700"/><rect x="158.36" y="23" width="33.18" height="12" fill="#f34b7d"/><rect x="191.54" y="23" width="27.40" height="12" fill="#ef7a08"/><rect x="218.94" y="23" width="22.50" height="12" fill="#315665"/><rect x="241.44" y="23" width="12.12" height="12" fill="#000080"/><rect x="253.55" y="23" width="9.35" height="12" fill="#1a7f37"/><rect x="262.90" y="23" width="7.79" height="12" fill="#555555"/><rect x="270.69" y="23" width="2.63" height="12" fill="#c065db"/><rect x="273.32" y="23" width="1.29" height="12" fill="#89e051"/><rect x="274.61" y="23" width="1.19" height="12" fill="#FEFE00"/><rect x="275.80" y="23" width="4.20" height="12" fill="#8b949e"/></g></svg>