<svg xmlns="http://www.w3.org/2000/svg" width="280" height="35"><text x="0" y="14" font-family="-apple-system,BlinkMacSystemFont,Segoe UI,Helvetica,Arial,sans-serif" font-size="13" font-weight="600" fill="#3572A5">Programming</text><clipPath id="c"><rect y="23" width="280" height="12" rx="4"/></clipPath><g clip-path="url(#c)"><rect x="0.00" y="23" width="56.75" height="12" fill="#5e5086"/><rect x="56.75" y="23" width="56.35" height="12" fill="#f1e05a"/><rect x="113.10" y="23" width="46.33" height="12" fill="#9a6700"/><rect x="159.43" y="23" width="33.46" height="12" fill="#f34b7d"/><rect x="192.90" y="23" width="29.12" height="12" fill="#ef7a08"/><rect x="222.02" y="23" width="22.18" height="12" fill="#315665"/><rect x="244.20" y="23" width="12.17" height="12" fill="#000080"/><rect x="256.37" y="23" width="9.43" height="12" fill="#1a7f37"/><rect x="265.80" y="23" width="7.86" height="12" fill="#555555"/><rect x="273.66" y="23" width="1.30" height="12" fill="#89e051"/><rect x="274.96" y="23" width="1.20" height="12" fill="#FEFE00"/><rect x="276.16" y="23" width="0.82" height="12" fill="#c065db"/><rect x="276.98" y="23" width="3.02" height="12" fill="#8b949e"/></g></svg>