<svg xmlns="http://www.w3.org/2000/svg" width="280" height="35"><text x="0" y="14" font-family="-apple-system,BlinkMacSystemFont,Segoe UI,Helvetica,Arial,sans-serif" font-size="13" font-weight="600" fill="#3572A5">Programming</text><clipPath id="c"><rect y="23" width="280" height="12" rx="4"/></clipPath><g clip-path="url(#c)"><rect x="0.00" y="23" width="56.02" height="12" fill="#5e5086"/><rect x="56.02" y="23" width="55.34" height="12" fill="#f1e05a"/><rect x="111.36" y="23" width="45.50" height="12" fill="#9a6700"/><rect x="156.87" y="23" width="32.87" height="12" fill="#f34b7d"/><rect x="189.73" y="23" width="28.60" height="12" fill="#ef7a08"/><rect x="218.33" y="23" width="25.11" height="12" fill="#315665"/><rect x="243.44" y="23" width="12.00" height="12" fill="#000080"/><rect x="255.44" y="23" width="9.26" height="12" fill="#1a7f37"/><rect x="264.70" y="23" width="7.72" height="12" fill="#555555"/><rect x="272.42" y="23" width="2.16" height="12" fill="#c065db"/><rect x="274.58" y="23" width="1.28" height="12" fill="#89e051"/><rect x="275.86" y="23" width="1.18" height="12" fill="#FEFE00"/><rect x="277.04" y="23" width="2.96" height="12" fill="#8b949e"/><rect x="280.00" y="23" width="0.00" height="12" fill="#808080" fill-opacity="0.22"/></g></svg>