<svg xmlns="http://www.w3.org/2000/svg" width="280" height="35"><text x="0" y="14" font-family="-apple-system,BlinkMacSystemFont,Segoe UI,Helvetica,Arial,sans-serif" font-size="13" font-weight="600" fill="#3572A5">Programming</text><clipPath id="c"><rect y="23" width="280" height="12" rx="4"/></clipPath><g clip-path="url(#c)"><rect x="0.00" y="23" width="108.08" height="12" fill="#315665"/><rect x="108.08" y="23" width="70.43" height="12" fill="#c9510c"/><rect x="178.51" y="23" width="37.95" height="12" fill="#5e5086"/><rect x="216.46" y="23" width="17.86" height="12" fill="#1a7f37"/><rect x="234.32" y="23" width="17.81" height="12" fill="#000080"/><rect x="252.13" y="23" width="8.45" height="12" fill="#555555"/><rect x="260.58" y="23" width="6.82" height="12" fill="#1a7f37"/><rect x="267.40" y="23" width="5.31" height="12" fill="#FEFE00"/><rect x="272.71" y="23" width="2.35" height="12" fill="#0550ae"/><rect x="275.06" y="23" width="0.92" height="12" fill="#dea584"/><rect x="275.98" y="23" width="0.84" height="12" fill="#89e051"/><rect x="276.82" y="23" width="0.69" height="12" fill="#f1e05a"/><rect x="277.51" y="23" width="2.49" height="12" fill="#808080" fill-opacity="0.22"/></g></svg>