<svg xmlns="http://www.w3.org/2000/svg" width="280" height="35"><text x="0" y="14" font-family="-apple-system,BlinkMacSystemFont,Segoe UI,Helvetica,Arial,sans-serif" font-size="13" font-weight="600" fill="#3572A5">Programming</text><clipPath id="c"><rect y="23" width="280" height="12" rx="4"/></clipPath><g clip-path="url(#c)"><rect x="0.00" y="23" width="97.60" height="12" fill="#5e5086"/><rect x="97.60" y="23" width="58.91" height="12" fill="#f34b7d"/><rect x="156.51" y="23" width="54.42" height="12" fill="#315665"/><rect x="210.93" y="23" width="18.24" height="12" fill="#000080"/><rect x="229.17" y="23" width="16.59" height="12" fill="#1a7f37"/><rect x="245.76" y="23" width="13.83" height="12" fill="#555555"/><rect x="259.60" y="23" width="13.79" height="12" fill="#ef7a08"/><rect x="273.38" y="23" width="1.91" height="12" fill="#89e051"/><rect x="275.29" y="23" width="1.10" height="12" fill="#9a6700"/><rect x="276.39" y="23" width="0.83" height="12" fill="#dea584"/><rect x="277.22" y="23" width="0.73" height="12" fill="#c065db"/><rect x="277.95" y="23" width="0.59" height="12" fill="#f1e05a"/><rect x="278.54" y="23" width="1.46" height="12" fill="#8b949e"/></g></svg>