<svg xmlns="http://www.w3.org/2000/svg" width="280" height="35"><text x="0" y="14" font-family="-apple-system,BlinkMacSystemFont,Segoe UI,Helvetica,Arial,sans-serif" font-size="13" font-weight="600" fill="#3572A5">Programming</text><clipPath id="c"><rect y="23" width="280" height="12" rx="4"/></clipPath><g clip-path="url(#c)"><rect x="0.00" y="23" width="77.91" height="12" fill="#f34b7d"/><rect x="77.91" y="23" width="71.97" height="12" fill="#315665"/><rect x="149.88" y="23" width="51.74" height="12" fill="#5e5086"/><rect x="201.61" y="23" width="23.67" height="12" fill="#000080"/><rect x="225.28" y="23" width="21.94" height="12" fill="#1a7f37"/><rect x="247.23" y="23" width="18.29" height="12" fill="#555555"/><rect x="265.52" y="23" width="5.77" height="12" fill="#FEFE00"/><rect x="271.29" y="23" width="2.02" height="12" fill="#c065db"/><rect x="273.31" y="23" width="1.32" height="12" fill="#0550ae"/><rect x="274.63" y="23" width="1.09" height="12" fill="#dea584"/><rect x="275.72" y="23" width="0.89" height="12" fill="#89e051"/><rect x="276.62" y="23" width="0.78" height="12" fill="#f1e05a"/><rect x="277.40" y="23" width="2.60" height="12" fill="#8b949e"/></g></svg>