<svg xmlns="http://www.w3.org/2000/svg" width="280" height="35"><text x="0" y="14" font-family="-apple-system,BlinkMacSystemFont,Segoe UI,Helvetica,Arial,sans-serif" font-size="13" font-weight="600" fill="#3572A5">Programming</text><clipPath id="c"><rect y="23" width="280" height="12" rx="4"/></clipPath><g clip-path="url(#c)"><rect x="0.00" y="23" width="97.93" height="12" fill="#5e5086"/><rect x="97.93" y="23" width="61.46" height="12" fill="#f34b7d"/><rect x="159.38" y="23" width="56.77" height="12" fill="#315665"/><rect x="216.15" y="23" width="19.03" height="12" fill="#000080"/><rect x="235.18" y="23" width="17.31" height="12" fill="#1a7f37"/><rect x="252.49" y="23" width="14.43" height="12" fill="#555555"/><rect x="266.92" y="23" width="4.55" height="12" fill="#FEFE00"/><rect x="271.47" y="23" width="1.79" height="12" fill="#89e051"/><rect x="273.26" y="23" width="1.61" height="12" fill="#c065db"/><rect x="274.87" y="23" width="1.15" height="12" fill="#9a6700"/><rect x="276.01" y="23" width="1.04" height="12" fill="#0550ae"/><rect x="277.05" y="23" width="0.86" height="12" fill="#dea584"/><rect x="277.92" y="23" width="2.08" height="12" fill="#8b949e"/><rect x="280.00" y="23" width="0.00" height="12" fill="#808080" fill-opacity="0.22"/></g></svg>