<svg xmlns="http://www.w3.org/2000/svg" width="280" height="35"><text x="0" y="14" font-family="-apple-system,BlinkMacSystemFont,Segoe UI,Helvetica,Arial,sans-serif" font-size="13" font-weight="600" fill="#3572A5">Programming</text><clipPath id="c"><rect y="23" width="280" height="12" rx="4"/></clipPath><g clip-path="url(#c)"><rect x="0.00" y="23" width="56.73" height="12" fill="#f1e05a"/><rect x="56.73" y="23" width="56.65" height="12" fill="#5e5086"/><rect x="113.38" y="23" width="46.66" height="12" fill="#9a6700"/><rect x="160.04" y="23" width="33.70" height="12" fill="#f34b7d"/><rect x="193.75" y="23" width="29.33" height="12" fill="#ef7a08"/><rect x="223.08" y="23" width="24.85" height="12" fill="#315665"/><rect x="247.92" y="23" width="10.43" height="12" fill="#000080"/><rect x="258.36" y="23" width="9.49" height="12" fill="#1a7f37"/><rect x="267.85" y="23" width="7.91" height="12" fill="#555555"/><rect x="275.77" y="23" width="1.28" height="12" fill="#89e051"/><rect x="277.05" y="23" width="0.64" height="12" fill="#9a6700"/><rect x="277.69" y="23" width="0.47" height="12" fill="#dea584"/><rect x="278.16" y="23" width="1.84" height="12" fill="#8b949e"/></g></svg>