<svg xmlns="http://www.w3.org/2000/svg" width="280" height="35"><text x="0" y="14" font-family="-apple-system,BlinkMacSystemFont,Segoe UI,Helvetica,Arial,sans-serif" font-size="13" font-weight="600" fill="#3572A5">Programming</text><clipPath id="c"><rect y="23" width="280" height="12" rx="4"/></clipPath><g clip-path="url(#c)"><rect x="0.00" y="23" width="91.24" height="12" fill="#5e5086"/><rect x="91.24" y="23" width="54.28" height="12" fill="#f34b7d"/><rect x="145.51" y="23" width="46.80" height="12" fill="#315665"/><rect x="192.31" y="23" width="36.29" height="12" fill="#ef7a08"/><rect x="228.60" y="23" width="16.80" height="12" fill="#000080"/><rect x="245.41" y="23" width="15.29" height="12" fill="#1a7f37"/><rect x="260.70" y="23" width="12.74" height="12" fill="#555555"/><rect x="273.44" y="23" width="1.91" height="12" fill="#89e051"/><rect x="275.35" y="23" width="1.03" height="12" fill="#9a6700"/><rect x="276.38" y="23" width="0.76" height="12" fill="#dea584"/><rect x="277.15" y="23" width="0.71" height="12" fill="#c065db"/><rect x="277.86" y="23" width="0.55" height="12" fill="#f1e05a"/><rect x="278.41" y="23" width="1.59" height="12" fill="#8b949e"/></g></svg>