<svg xmlns="http://www.w3.org/2000/svg" width="280" height="35"><text x="0" y="14" font-family="-apple-system,BlinkMacSystemFont,Segoe UI,Helvetica,Arial,sans-serif" font-size="13" font-weight="600" fill="#3572A5">Programming</text><clipPath id="c"><rect y="23" width="280" height="12" rx="4"/></clipPath><g clip-path="url(#c)"><rect x="0.00" y="23" width="56.04" height="12" fill="#5e5086"/><rect x="56.04" y="23" width="55.65" height="12" fill="#f1e05a"/><rect x="111.69" y="23" width="45.75" height="12" fill="#9a6700"/><rect x="157.44" y="23" width="33.05" height="12" fill="#f34b7d"/><rect x="190.49" y="23" width="28.76" height="12" fill="#ef7a08"/><rect x="219.25" y="23" width="25.25" height="12" fill="#315665"/><rect x="244.50" y="23" width="12.07" height="12" fill="#000080"/><rect x="256.56" y="23" width="9.31" height="12" fill="#1a7f37"/><rect x="265.87" y="23" width="7.76" height="12" fill="#555555"/><rect x="273.63" y="23" width="1.29" height="12" fill="#89e051"/><rect x="274.92" y="23" width="1.18" height="12" fill="#FEFE00"/><rect x="276.10" y="23" width="0.92" height="12" fill="#c065db"/><rect x="277.02" y="23" width="2.98" height="12" fill="#8b949e"/></g></svg>