<svg xmlns="http://www.w3.org/2000/svg" width="280" height="35"><text x="0" y="14" font-family="-apple-system,BlinkMacSystemFont,Segoe UI,Helvetica,Arial,sans-serif" font-size="13" font-weight="600" fill="#3572A5">Programming</text><clipPath id="c"><rect y="23" width="280" height="12" rx="4"/></clipPath><g clip-path="url(#c)"><rect x="0.00" y="23" width="106.29" height="12" fill="#315665"/><rect x="106.29" y="23" width="69.26" height="12" fill="#c9510c"/><rect x="175.55" y="23" width="37.32" height="12" fill="#5e5086"/><rect x="212.87" y="23" width="22.17" height="12" fill="#000080"/><rect x="235.03" y="23" width="17.56" height="12" fill="#1a7f37"/><rect x="252.60" y="23" width="8.31" height="12" fill="#555555"/><rect x="260.91" y="23" width="6.70" height="12" fill="#1a7f37"/><rect x="267.61" y="23" width="5.22" height="12" fill="#FEFE00"/><rect x="272.83" y="23" width="2.31" height="12" fill="#0550ae"/><rect x="275.14" y="23" width="0.91" height="12" fill="#dea584"/><rect x="276.05" y="23" width="0.82" height="12" fill="#89e051"/><rect x="276.87" y="23" width="0.68" height="12" fill="#f1e05a"/><rect x="277.55" y="23" width="2.45" height="12" fill="#808080" fill-opacity="0.22"/></g></svg>