<svg xmlns="http://www.w3.org/2000/svg" width="280" height="35"><text x="0" y="14" font-family="-apple-system,BlinkMacSystemFont,Segoe UI,Helvetica,Arial,sans-serif" font-size="13" font-weight="600" fill="#3572A5">Programming</text><clipPath id="c"><rect y="23" width="280" height="12" rx="4"/></clipPath><g clip-path="url(#c)"><rect x="0.00" y="23" width="85.50" height="12" fill="#5e5086"/><rect x="85.50" y="23" width="65.91" height="12" fill="#f34b7d"/><rect x="151.41" y="23" width="60.88" height="12" fill="#315665"/><rect x="212.30" y="23" width="20.17" height="12" fill="#000080"/><rect x="232.47" y="23" width="18.57" height="12" fill="#1a7f37"/><rect x="251.03" y="23" width="15.48" height="12" fill="#555555"/><rect x="266.51" y="23" width="4.88" height="12" fill="#FEFE00"/><rect x="271.39" y="23" width="1.72" height="12" fill="#c065db"/><rect x="273.11" y="23" width="1.44" height="12" fill="#89e051"/><rect x="274.55" y="23" width="1.17" height="12" fill="#9a6700"/><rect x="275.72" y="23" width="1.12" height="12" fill="#0550ae"/><rect x="276.84" y="23" width="0.93" height="12" fill="#dea584"/><rect x="277.77" y="23" width="2.23" height="12" fill="#8b949e"/></g></svg>