<svg xmlns="http://www.w3.org/2000/svg" width="280" height="35"><text x="0" y="14" font-family="-apple-system,BlinkMacSystemFont,Segoe UI,Helvetica,Arial,sans-serif" font-size="13" font-weight="600" fill="#3572A5">Programming</text><clipPath id="c"><rect y="23" width="280" height="12" rx="4"/></clipPath><g clip-path="url(#c)"><rect x="0.00" y="23" width="95.57" height="12" fill="#5e5086"/><rect x="95.57" y="23" width="57.23" height="12" fill="#f34b7d"/><rect x="152.80" y="23" width="51.96" height="12" fill="#315665"/><rect x="204.76" y="23" width="21.04" height="12" fill="#ef7a08"/><rect x="225.80" y="23" width="17.72" height="12" fill="#000080"/><rect x="243.52" y="23" width="16.12" height="12" fill="#1a7f37"/><rect x="259.64" y="23" width="13.44" height="12" fill="#555555"/><rect x="273.08" y="23" width="2.02" height="12" fill="#89e051"/><rect x="275.10" y="23" width="1.07" height="12" fill="#9a6700"/><rect x="276.17" y="23" width="0.80" height="12" fill="#dea584"/><rect x="276.97" y="23" width="0.77" height="12" fill="#c065db"/><rect x="277.74" y="23" width="0.58" height="12" fill="#f1e05a"/><rect x="278.32" y="23" width="1.68" height="12" fill="#8b949e"/></g></svg>