<svg xmlns="http://www.w3.org/2000/svg" width="280" height="35"><text x="0" y="14" font-family="-apple-system,BlinkMacSystemFont,Segoe UI,Helvetica,Arial,sans-serif" font-size="13" font-weight="600" fill="#3572A5">Programming</text><clipPath id="c"><rect y="23" width="280" height="12" rx="4"/></clipPath><g clip-path="url(#c)"><rect x="0.00" y="23" width="74.66" height="12" fill="#f34b7d"/><rect x="74.66" y="23" width="68.97" height="12" fill="#315665"/><rect x="143.63" y="23" width="60.64" height="12" fill="#5e5086"/><rect x="204.27" y="23" width="22.68" height="12" fill="#000080"/><rect x="226.96" y="23" width="21.03" height="12" fill="#1a7f37"/><rect x="247.99" y="23" width="17.53" height="12" fill="#555555"/><rect x="265.52" y="23" width="5.53" height="12" fill="#FEFE00"/><rect x="271.05" y="23" width="1.95" height="12" fill="#c065db"/><rect x="273.00" y="23" width="1.44" height="12" fill="#89e051"/><rect x="274.43" y="23" width="1.27" height="12" fill="#0550ae"/><rect x="275.70" y="23" width="1.05" height="12" fill="#dea584"/><rect x="276.75" y="23" width="0.75" height="12" fill="#f1e05a"/><rect x="277.50" y="23" width="2.50" height="12" fill="#8b949e"/></g></svg>