<svg xmlns="http://www.w3.org/2000/svg" width="280" height="35"><text x="0" y="14" font-family="-apple-system,BlinkMacSystemFont,Segoe UI,Helvetica,Arial,sans-serif" font-size="13" font-weight="600" fill="#3572A5">Programming</text><clipPath id="c"><rect y="23" width="280" height="12" rx="4"/></clipPath><g clip-path="url(#c)"><rect x="0.00" y="23" width="77.21" height="12" fill="#f1e05a"/><rect x="77.21" y="23" width="63.87" height="12" fill="#9a6700"/><rect x="141.08" y="23" width="50.32" height="12" fill="#315665"/><rect x="191.40" y="23" width="33.48" height="12" fill="#ef7a08"/><rect x="224.87" y="23" width="23.87" height="12" fill="#c065db"/><rect x="248.74" y="23" width="16.28" height="12" fill="#5e5086"/><rect x="265.02" y="23" width="6.33" height="12" fill="#3572A5"/><rect x="271.35" y="23" width="2.58" height="12" fill="#000080"/><rect x="273.93" y="23" width="1.65" height="12" fill="#FEFE00"/><rect x="275.58" y="23" width="1.45" height="12" fill="#89e051"/><rect x="277.03" y="23" width="0.81" height="12" fill="#178600"/><rect x="277.84" y="23" width="0.67" height="12" fill="#572e30"/><rect x="278.51" y="23" width="1.49" height="12" fill="#8b949e"/></g></svg>