<svg xmlns="http://www.w3.org/2000/svg" width="280" height="35"><text x="0" y="14" font-family="-apple-system,BlinkMacSystemFont,Segoe UI,Helvetica,Arial,sans-serif" font-size="13" font-weight="600" fill="#3572A5">Programming</text><clipPath id="c"><rect y="23" width="280" height="12" rx="4"/></clipPath><g clip-path="url(#c)"><rect x="0.00" y="23" width="94.93" height="12" fill="#5e5086"/><rect x="94.93" y="23" width="57.30" height="12" fill="#f34b7d"/><rect x="152.23" y="23" width="52.93" height="12" fill="#315665"/><rect x="205.15" y="23" width="21.06" height="12" fill="#ef7a08"/><rect x="226.22" y="23" width="17.74" height="12" fill="#000080"/><rect x="243.96" y="23" width="16.14" height="12" fill="#1a7f37"/><rect x="260.10" y="23" width="13.45" height="12" fill="#555555"/><rect x="273.55" y="23" width="1.87" height="12" fill="#89e051"/><rect x="275.42" y="23" width="1.07" height="12" fill="#9a6700"/><rect x="276.49" y="23" width="0.80" height="12" fill="#dea584"/><rect x="277.30" y="23" width="0.71" height="12" fill="#c065db"/><rect x="278.01" y="23" width="0.58" height="12" fill="#f1e05a"/><rect x="278.58" y="23" width="1.42" height="12" fill="#8b949e"/><rect x="280.00" y="23" width="0.00" height="12" fill="#808080" fill-opacity="0.22"/></g></svg>