<svg xmlns="http://www.w3.org/2000/svg" width="280" height="35"><text x="0" y="14" font-family="-apple-system,BlinkMacSystemFont,Segoe UI,Helvetica,Arial,sans-serif" font-size="13" font-weight="600" fill="#3572A5">Programming</text><clipPath id="c"><rect y="23" width="280" height="12" rx="4"/></clipPath><g clip-path="url(#c)"><rect x="0.00" y="23" width="89.79" height="12" fill="#5e5086"/><rect x="89.79" y="23" width="64.33" height="12" fill="#f34b7d"/><rect x="154.12" y="23" width="59.42" height="12" fill="#315665"/><rect x="213.55" y="23" width="19.92" height="12" fill="#000080"/><rect x="233.46" y="23" width="18.12" height="12" fill="#1a7f37"/><rect x="251.58" y="23" width="15.11" height="12" fill="#555555"/><rect x="266.69" y="23" width="4.76" height="12" fill="#FEFE00"/><rect x="271.45" y="23" width="1.68" height="12" fill="#c065db"/><rect x="273.13" y="23" width="1.53" height="12" fill="#89e051"/><rect x="274.67" y="23" width="1.16" height="12" fill="#9a6700"/><rect x="275.83" y="23" width="1.09" height="12" fill="#0550ae"/><rect x="276.92" y="23" width="0.90" height="12" fill="#dea584"/><rect x="277.82" y="23" width="2.18" height="12" fill="#8b949e"/></g></svg>