<svg xmlns="http://www.w3.org/2000/svg" width="280" height="35"><text x="0" y="14" font-family="-apple-system,BlinkMacSystemFont,Segoe UI,Helvetica,Arial,sans-serif" font-size="13" font-weight="600" fill="#3572A5">Programming</text><clipPath id="c"><rect y="23" width="280" height="12" rx="4"/></clipPath><g clip-path="url(#c)"><rect x="0.00" y="23" width="45.31" height="12" fill="#f1e05a"/><rect x="45.31" y="23" width="44.26" height="12" fill="#ef7a08"/><rect x="89.57" y="23" width="42.53" height="12" fill="#5e5086"/><rect x="132.10" y="23" width="36.49" height="12" fill="#9a6700"/><rect x="168.59" y="23" width="27.22" height="12" fill="#315665"/><rect x="195.80" y="23" width="26.56" height="12" fill="#f34b7d"/><rect x="222.36" y="23" width="21.77" height="12" fill="#b07219"/><rect x="244.13" y="23" width="9.11" height="12" fill="#000080"/><rect x="253.24" y="23" width="7.03" height="12" fill="#1a7f37"/><rect x="260.27" y="23" width="6.95" height="12" fill="#555555"/><rect x="267.22" y="23" width="2.76" height="12" fill="#FEFE00"/><rect x="269.98" y="23" width="2.00" height="12" fill="#3572A5"/><rect x="271.99" y="23" width="8.01" height="12" fill="#8b949e"/></g></svg>