<svg xmlns="http://www.w3.org/2000/svg" width="280" height="35"><text x="0" y="14" font-family="-apple-system,BlinkMacSystemFont,Segoe UI,Helvetica,Arial,sans-serif" font-size="13" font-weight="600" fill="#3572A5">Programming</text><clipPath id="c"><rect y="23" width="280" height="12" rx="4"/></clipPath><g clip-path="url(#c)"><rect x="0.00" y="23" width="46.19" height="12" fill="#f1e05a"/><rect x="46.19" y="23" width="45.13" height="12" fill="#ef7a08"/><rect x="91.33" y="23" width="42.76" height="12" fill="#5e5086"/><rect x="134.09" y="23" width="37.20" height="12" fill="#9a6700"/><rect x="171.29" y="23" width="27.08" height="12" fill="#f34b7d"/><rect x="198.37" y="23" width="23.97" height="12" fill="#315665"/><rect x="222.34" y="23" width="22.19" height="12" fill="#b07219"/><rect x="244.53" y="23" width="9.22" height="12" fill="#000080"/><rect x="253.76" y="23" width="7.17" height="12" fill="#1a7f37"/><rect x="260.92" y="23" width="7.09" height="12" fill="#555555"/><rect x="268.01" y="23" width="2.81" height="12" fill="#FEFE00"/><rect x="270.83" y="23" width="2.04" height="12" fill="#3572A5"/><rect x="272.87" y="23" width="7.13" height="12" fill="#8b949e"/></g></svg>