<svg xmlns="http://www.w3.org/2000/svg" width="280" height="35"><text x="0" y="14" font-family="-apple-system,BlinkMacSystemFont,Segoe UI,Helvetica,Arial,sans-serif" font-size="13" font-weight="600" fill="#3572A5">Programming</text><clipPath id="c"><rect y="23" width="280" height="12" rx="4"/></clipPath><g clip-path="url(#c)"><rect x="0.00" y="23" width="57.41" height="12" fill="#5e5086"/><rect x="57.41" y="23" width="46.75" height="12" fill="#f34b7d"/><rect x="104.16" y="23" width="40.57" height="12" fill="#315665"/><rect x="144.74" y="23" width="39.70" height="12" fill="#ef7a08"/><rect x="184.43" y="23" width="38.32" height="12" fill="#b07219"/><rect x="222.75" y="23" width="15.76" height="12" fill="#000080"/><rect x="238.52" y="23" width="12.37" height="12" fill="#1a7f37"/><rect x="250.89" y="23" width="12.24" height="12" fill="#555555"/><rect x="263.13" y="23" width="3.53" height="12" fill="#3572A5"/><rect x="266.66" y="23" width="3.29" height="12" fill="#FEFE00"/><rect x="269.95" y="23" width="2.14" height="12" fill="#b845fc"/><rect x="272.09" y="23" width="1.66" height="12" fill="#89e051"/><rect x="273.75" y="23" width="6.25" height="12" fill="#8b949e"/></g></svg>