<svg xmlns="http://www.w3.org/2000/svg" width="280" height="35"><text x="0" y="14" font-family="-apple-system,BlinkMacSystemFont,Segoe UI,Helvetica,Arial,sans-serif" font-size="13" font-weight="600" fill="#3572A5">Programming</text><clipPath id="c"><rect y="23" width="280" height="12" rx="4"/></clipPath><g clip-path="url(#c)"><rect x="0.00" y="23" width="66.14" height="12" fill="#5e5086"/><rect x="66.14" y="23" width="47.03" height="12" fill="#ef7a08"/><rect x="113.17" y="23" width="42.49" height="12" fill="#f34b7d"/><rect x="155.66" y="23" width="36.88" height="12" fill="#315665"/><rect x="192.54" y="23" width="34.83" height="12" fill="#b07219"/><rect x="227.37" y="23" width="14.47" height="12" fill="#000080"/><rect x="241.84" y="23" width="11.24" height="12" fill="#1a7f37"/><rect x="253.09" y="23" width="11.13" height="12" fill="#555555"/><rect x="264.21" y="23" width="3.21" height="12" fill="#3572A5"/><rect x="267.42" y="23" width="2.99" height="12" fill="#FEFE00"/><rect x="270.41" y="23" width="1.95" height="12" fill="#b845fc"/><rect x="272.35" y="23" width="1.93" height="12" fill="#89e051"/><rect x="274.29" y="23" width="5.71" height="12" fill="#8b949e"/></g></svg>