<svg xmlns="http://www.w3.org/2000/svg" width="280" height="35"><text x="0" y="14" font-family="-apple-system,BlinkMacSystemFont,Segoe UI,Helvetica,Arial,sans-serif" font-size="13" font-weight="600" fill="#3572A5">Programming</text><clipPath id="c"><rect y="23" width="280" height="12" rx="4"/></clipPath><g clip-path="url(#c)"><rect x="0.00" y="23" width="45.50" height="12" fill="#f1e05a"/><rect x="45.50" y="23" width="44.45" height="12" fill="#ef7a08"/><rect x="89.96" y="23" width="42.49" height="12" fill="#5e5086"/><rect x="132.45" y="23" width="36.64" height="12" fill="#9a6700"/><rect x="169.09" y="23" width="27.33" height="12" fill="#315665"/><rect x="196.43" y="23" width="26.67" height="12" fill="#f34b7d"/><rect x="223.10" y="23" width="21.86" height="12" fill="#b07219"/><rect x="244.96" y="23" width="9.15" height="12" fill="#000080"/><rect x="254.11" y="23" width="7.06" height="12" fill="#1a7f37"/><rect x="261.16" y="23" width="6.98" height="12" fill="#555555"/><rect x="268.15" y="23" width="2.77" height="12" fill="#FEFE00"/><rect x="270.92" y="23" width="2.01" height="12" fill="#3572A5"/><rect x="272.93" y="23" width="7.07" height="12" fill="#8b949e"/><rect x="280.00" y="23" width="0.00" height="12" fill="#808080" fill-opacity="0.22"/></g></svg>