<svg xmlns="http://www.w3.org/2000/svg" width="280" height="35"><text x="0" y="14" font-family="-apple-system,BlinkMacSystemFont,Segoe UI,Helvetica,Arial,sans-serif" font-size="13" font-weight="600" fill="#3572A5">Programming</text><clipPath id="c"><rect y="23" width="280" height="12" rx="4"/></clipPath><g clip-path="url(#c)"><rect x="0.00" y="23" width="46.27" height="12" fill="#f1e05a"/><rect x="46.27" y="23" width="45.15" height="12" fill="#ef7a08"/><rect x="91.42" y="23" width="43.21" height="12" fill="#5e5086"/><rect x="134.63" y="23" width="37.26" height="12" fill="#9a6700"/><rect x="171.89" y="23" width="27.12" height="12" fill="#f34b7d"/><rect x="199.01" y="23" width="23.21" height="12" fill="#315665"/><rect x="222.22" y="23" width="22.23" height="12" fill="#b07219"/><rect x="244.45" y="23" width="9.27" height="12" fill="#000080"/><rect x="253.71" y="23" width="7.18" height="12" fill="#1a7f37"/><rect x="260.89" y="23" width="7.10" height="12" fill="#555555"/><rect x="267.99" y="23" width="2.82" height="12" fill="#FEFE00"/><rect x="270.81" y="23" width="2.05" height="12" fill="#3572A5"/><rect x="272.86" y="23" width="7.14" height="12" fill="#8b949e"/></g></svg>