<svg xmlns="http://www.w3.org/2000/svg" width="280" height="35"><text x="0" y="14" font-family="-apple-system,BlinkMacSystemFont,Segoe UI,Helvetica,Arial,sans-serif" font-size="13" font-weight="600" fill="#3572A5">Programming</text><clipPath id="c"><rect y="23" width="280" height="12" rx="4"/></clipPath><g clip-path="url(#c)"><rect x="0.00" y="23" width="46.52" height="12" fill="#f1e05a"/><rect x="46.52" y="23" width="45.45" height="12" fill="#ef7a08"/><rect x="91.97" y="23" width="43.07" height="12" fill="#5e5086"/><rect x="135.04" y="23" width="37.47" height="12" fill="#9a6700"/><rect x="172.51" y="23" width="27.27" height="12" fill="#f34b7d"/><rect x="199.78" y="23" width="23.75" height="12" fill="#315665"/><rect x="223.53" y="23" width="22.35" height="12" fill="#b07219"/><rect x="245.88" y="23" width="9.29" height="12" fill="#000080"/><rect x="255.16" y="23" width="7.22" height="12" fill="#1a7f37"/><rect x="262.38" y="23" width="7.14" height="12" fill="#555555"/><rect x="269.52" y="23" width="2.06" height="12" fill="#3572A5"/><rect x="271.58" y="23" width="1.97" height="12" fill="#FEFE00"/><rect x="273.54" y="23" width="6.46" height="12" fill="#8b949e"/></g></svg>