<svg xmlns="http://www.w3.org/2000/svg" width="280" height="35"><text x="0" y="14" font-family="-apple-system,BlinkMacSystemFont,Segoe UI,Helvetica,Arial,sans-serif" font-size="13" font-weight="600" fill="#3572A5">Programming</text><clipPath id="c"><rect y="23" width="280" height="12" rx="4"/></clipPath><g clip-path="url(#c)"><rect x="0.00" y="23" width="66.87" height="12" fill="#5e5086"/><rect x="66.87" y="23" width="44.66" height="12" fill="#f34b7d"/><rect x="111.53" y="23" width="38.76" height="12" fill="#315665"/><rect x="150.29" y="23" width="37.92" height="12" fill="#ef7a08"/><rect x="188.21" y="23" width="36.61" height="12" fill="#b07219"/><rect x="224.82" y="23" width="15.21" height="12" fill="#000080"/><rect x="240.03" y="23" width="11.82" height="12" fill="#1a7f37"/><rect x="251.85" y="23" width="11.69" height="12" fill="#555555"/><rect x="263.54" y="23" width="3.37" height="12" fill="#3572A5"/><rect x="266.91" y="23" width="3.14" height="12" fill="#FEFE00"/><rect x="270.06" y="23" width="2.05" height="12" fill="#b845fc"/><rect x="272.10" y="23" width="1.90" height="12" fill="#89e051"/><rect x="274.00" y="23" width="6.00" height="12" fill="#8b949e"/></g></svg>