<svg xmlns="http://www.w3.org/2000/svg" width="280" height="35"><text x="0" y="14" font-family="-apple-system,BlinkMacSystemFont,Segoe UI,Helvetica,Arial,sans-serif" font-size="13" font-weight="600" fill="#3572A5">Programming</text><clipPath id="c"><rect y="23" width="280" height="12" rx="4"/></clipPath><g clip-path="url(#c)"><rect x="0.00" y="23" width="53.72" height="12" fill="#f34b7d"/><rect x="53.72" y="23" width="46.62" height="12" fill="#315665"/><rect x="100.35" y="23" width="45.61" height="12" fill="#ef7a08"/><rect x="145.96" y="23" width="44.03" height="12" fill="#b07219"/><rect x="189.99" y="23" width="25.30" height="12" fill="#5e5086"/><rect x="215.29" y="23" width="18.01" height="12" fill="#000080"/><rect x="233.30" y="23" width="14.22" height="12" fill="#1a7f37"/><rect x="247.51" y="23" width="14.07" height="12" fill="#555555"/><rect x="261.58" y="23" width="4.06" height="12" fill="#3572A5"/><rect x="265.63" y="23" width="3.78" height="12" fill="#FEFE00"/><rect x="269.41" y="23" width="2.46" height="12" fill="#b845fc"/><rect x="271.87" y="23" width="1.39" height="12" fill="#89e051"/><rect x="273.26" y="23" width="6.74" height="12" fill="#8b949e"/></g></svg>