<svg xmlns="http://www.w3.org/2000/svg" width="280" height="35"><text x="0" y="14" font-family="-apple-system,BlinkMacSystemFont,Segoe UI,Helvetica,Arial,sans-serif" font-size="13" font-weight="600" fill="#3572A5">Programming</text><clipPath id="c"><rect y="23" width="280" height="12" rx="4"/></clipPath><g clip-path="url(#c)"><rect x="0.00" y="23" width="52.19" height="12" fill="#f34b7d"/><rect x="52.19" y="23" width="45.29" height="12" fill="#315665"/><rect x="97.48" y="23" width="44.31" height="12" fill="#ef7a08"/><rect x="141.79" y="23" width="42.78" height="12" fill="#b07219"/><rect x="184.57" y="23" width="32.56" height="12" fill="#5e5086"/><rect x="217.13" y="23" width="17.49" height="12" fill="#000080"/><rect x="234.62" y="23" width="13.81" height="12" fill="#1a7f37"/><rect x="248.43" y="23" width="13.66" height="12" fill="#555555"/><rect x="262.09" y="23" width="3.94" height="12" fill="#3572A5"/><rect x="266.03" y="23" width="3.67" height="12" fill="#FEFE00"/><rect x="269.71" y="23" width="2.39" height="12" fill="#b845fc"/><rect x="272.10" y="23" width="1.35" height="12" fill="#89e051"/><rect x="273.44" y="23" width="6.56" height="12" fill="#8b949e"/></g></svg>