<svg xmlns="http://www.w3.org/2000/svg" width="280" height="35"><text x="0" y="14" font-family="-apple-system,BlinkMacSystemFont,Segoe UI,Helvetica,Arial,sans-serif" font-size="13" font-weight="600" fill="#3572A5">Programming</text><clipPath id="c"><rect y="23" width="280" height="12" rx="4"/></clipPath><g clip-path="url(#c)"><rect x="0.00" y="23" width="54.88" height="12" fill="#c9510c"/><rect x="54.88" y="23" width="47.68" height="12" fill="#315665"/><rect x="102.56" y="23" width="46.65" height="12" fill="#ef7a08"/><rect x="149.21" y="23" width="45.04" height="12" fill="#b07219"/><rect x="194.25" y="23" width="24.45" height="12" fill="#5e5086"/><rect x="218.70" y="23" width="14.54" height="12" fill="#1a7f37"/><rect x="233.24" y="23" width="13.87" height="12" fill="#000080"/><rect x="247.11" y="23" width="7.25" height="12" fill="#1a7f37"/><rect x="254.36" y="23" width="7.14" height="12" fill="#555555"/><rect x="261.50" y="23" width="4.15" height="12" fill="#3572A5"/><rect x="265.65" y="23" width="3.87" height="12" fill="#FEFE00"/><rect x="269.51" y="23" width="2.52" height="12" fill="#b845fc"/><rect x="272.03" y="23" width="7.97" height="12" fill="#808080" fill-opacity="0.22"/></g></svg>