<svg xmlns="http://www.w3.org/2000/svg" width="280" height="35"><text x="0" y="14" font-family="-apple-system,BlinkMacSystemFont,Segoe UI,Helvetica,Arial,sans-serif" font-size="13" font-weight="600" fill="#3572A5">Programming</text><clipPath id="c"><rect y="23" width="280" height="12" rx="4"/></clipPath><g clip-path="url(#c)"><rect x="0.00" y="23" width="66.52" height="12" fill="#5e5086"/><rect x="66.52" y="23" width="45.69" height="12" fill="#ef7a08"/><rect x="112.21" y="23" width="42.74" height="12" fill="#f34b7d"/><rect x="154.94" y="23" width="37.09" height="12" fill="#315665"/><rect x="192.03" y="23" width="35.03" height="12" fill="#b07219"/><rect x="227.06" y="23" width="14.56" height="12" fill="#000080"/><rect x="241.62" y="23" width="11.31" height="12" fill="#1a7f37"/><rect x="252.93" y="23" width="11.19" height="12" fill="#555555"/><rect x="264.12" y="23" width="3.23" height="12" fill="#3572A5"/><rect x="267.35" y="23" width="3.01" height="12" fill="#FEFE00"/><rect x="270.35" y="23" width="1.96" height="12" fill="#b845fc"/><rect x="272.31" y="23" width="1.94" height="12" fill="#89e051"/><rect x="274.25" y="23" width="5.75" height="12" fill="#8b949e"/></g></svg>