<svg xmlns="http://www.w3.org/2000/svg" width="280" height="35"><text x="0" y="14" font-family="-apple-system,BlinkMacSystemFont,Segoe UI,Helvetica,Arial,sans-serif" font-size="13" font-weight="600" fill="#3572A5">Programming</text><clipPath id="c"><rect y="23" width="280" height="12" rx="4"/></clipPath><g clip-path="url(#c)"><rect x="0.00" y="23" width="45.46" height="12" fill="#f1e05a"/><rect x="45.46" y="23" width="44.42" height="12" fill="#ef7a08"/><rect x="89.88" y="23" width="42.67" height="12" fill="#5e5086"/><rect x="132.55" y="23" width="36.61" height="12" fill="#9a6700"/><rect x="169.16" y="23" width="27.31" height="12" fill="#315665"/><rect x="196.47" y="23" width="26.65" height="12" fill="#f34b7d"/><rect x="223.12" y="23" width="21.84" height="12" fill="#b07219"/><rect x="244.96" y="23" width="9.14" height="12" fill="#000080"/><rect x="254.10" y="23" width="7.05" height="12" fill="#1a7f37"/><rect x="261.15" y="23" width="6.98" height="12" fill="#555555"/><rect x="268.13" y="23" width="2.77" height="12" fill="#FEFE00"/><rect x="270.90" y="23" width="2.01" height="12" fill="#3572A5"/><rect x="272.91" y="23" width="7.09" height="12" fill="#8b949e"/></g></svg>