<svg xmlns="http://www.w3.org/2000/svg" width="280" height="35"><text x="0" y="14" font-family="-apple-system,BlinkMacSystemFont,Segoe UI,Helvetica,Arial,sans-serif" font-size="13" font-weight="600" fill="#3572A5">Programming</text><clipPath id="c"><rect y="23" width="280" height="12" rx="4"/></clipPath><g clip-path="url(#c)"><rect x="0.00" y="23" width="63.25" height="12" fill="#5e5086"/><rect x="63.25" y="23" width="59.17" height="12" fill="#ef7a08"/><rect x="122.43" y="23" width="40.05" height="12" fill="#f34b7d"/><rect x="162.48" y="23" width="34.76" height="12" fill="#315665"/><rect x="197.24" y="23" width="32.83" height="12" fill="#b07219"/><rect x="230.06" y="23" width="13.64" height="12" fill="#000080"/><rect x="243.71" y="23" width="10.60" height="12" fill="#1a7f37"/><rect x="254.30" y="23" width="10.49" height="12" fill="#555555"/><rect x="264.79" y="23" width="3.02" height="12" fill="#3572A5"/><rect x="267.81" y="23" width="2.82" height="12" fill="#FEFE00"/><rect x="270.63" y="23" width="1.93" height="12" fill="#89e051"/><rect x="272.56" y="23" width="1.83" height="12" fill="#b845fc"/><rect x="274.39" y="23" width="5.61" height="12" fill="#8b949e"/></g></svg>