<svg xmlns="http://www.w3.org/2000/svg" width="280" height="35"><text x="0" y="14" font-family="-apple-system,BlinkMacSystemFont,Segoe UI,Helvetica,Arial,sans-serif" font-size="13" font-weight="600" fill="#3572A5">Programming</text><clipPath id="c"><rect y="23" width="280" height="12" rx="4"/></clipPath><g clip-path="url(#c)"><rect x="0.00" y="23" width="50.80" height="12" fill="#f34b7d"/><rect x="50.80" y="23" width="44.09" height="12" fill="#315665"/><rect x="94.89" y="23" width="43.13" height="12" fill="#ef7a08"/><rect x="138.02" y="23" width="41.64" height="12" fill="#b07219"/><rect x="179.65" y="23" width="38.76" height="12" fill="#5e5086"/><rect x="218.42" y="23" width="17.03" height="12" fill="#000080"/><rect x="235.44" y="23" width="13.44" height="12" fill="#1a7f37"/><rect x="248.88" y="23" width="13.30" height="12" fill="#555555"/><rect x="262.18" y="23" width="3.83" height="12" fill="#3572A5"/><rect x="266.02" y="23" width="3.57" height="12" fill="#FEFE00"/><rect x="269.59" y="23" width="2.33" height="12" fill="#b845fc"/><rect x="271.92" y="23" width="1.68" height="12" fill="#89e051"/><rect x="273.60" y="23" width="6.40" height="12" fill="#8b949e"/></g></svg>