<svg xmlns="http://www.w3.org/2000/svg" width="280" height="35"><text x="0" y="14" font-family="-apple-system,BlinkMacSystemFont,Segoe UI,Helvetica,Arial,sans-serif" font-size="13" font-weight="600" fill="#3572A5">Programming</text><clipPath id="c"><rect y="23" width="280" height="12" rx="4"/></clipPath><g clip-path="url(#c)"><rect x="0.00" y="23" width="51.57" height="12" fill="#f34b7d"/><rect x="51.57" y="23" width="44.75" height="12" fill="#315665"/><rect x="96.31" y="23" width="43.78" height="12" fill="#ef7a08"/><rect x="140.09" y="23" width="42.26" height="12" fill="#b07219"/><rect x="182.36" y="23" width="35.52" height="12" fill="#5e5086"/><rect x="217.87" y="23" width="17.28" height="12" fill="#000080"/><rect x="235.16" y="23" width="13.65" height="12" fill="#1a7f37"/><rect x="248.80" y="23" width="13.50" height="12" fill="#555555"/><rect x="262.30" y="23" width="3.89" height="12" fill="#3572A5"/><rect x="266.19" y="23" width="3.63" height="12" fill="#FEFE00"/><rect x="269.82" y="23" width="2.36" height="12" fill="#b845fc"/><rect x="272.18" y="23" width="1.33" height="12" fill="#89e051"/><rect x="273.51" y="23" width="6.49" height="12" fill="#8b949e"/></g></svg>