<svg xmlns="http://www.w3.org/2000/svg" width="280" height="35"><text x="0" y="14" font-family="-apple-system,BlinkMacSystemFont,Segoe UI,Helvetica,Arial,sans-serif" font-size="13" font-weight="600" fill="#3572A5">Programming</text><clipPath id="c"><rect y="23" width="280" height="12" rx="4"/></clipPath><g clip-path="url(#c)"><rect x="0.00" y="23" width="65.63" height="12" fill="#5e5086"/><rect x="65.63" y="23" width="49.93" height="12" fill="#ef7a08"/><rect x="115.56" y="23" width="41.80" height="12" fill="#f34b7d"/><rect x="157.36" y="23" width="36.27" height="12" fill="#315665"/><rect x="193.63" y="23" width="34.26" height="12" fill="#b07219"/><rect x="227.89" y="23" width="14.24" height="12" fill="#000080"/><rect x="242.13" y="23" width="11.06" height="12" fill="#1a7f37"/><rect x="253.19" y="23" width="10.94" height="12" fill="#555555"/><rect x="264.14" y="23" width="3.15" height="12" fill="#3572A5"/><rect x="267.29" y="23" width="2.94" height="12" fill="#FEFE00"/><rect x="270.23" y="23" width="2.01" height="12" fill="#89e051"/><rect x="272.24" y="23" width="1.91" height="12" fill="#b845fc"/><rect x="274.16" y="23" width="5.84" height="12" fill="#8b949e"/></g></svg>