<svg xmlns="http://www.w3.org/2000/svg" width="280" height="35"><text x="0" y="14" font-family="-apple-system,BlinkMacSystemFont,Segoe UI,Helvetica,Arial,sans-serif" font-size="13" font-weight="600" fill="#3572A5">Programming</text><clipPath id="c"><rect y="23" width="280" height="12" rx="4"/></clipPath><g clip-path="url(#c)"><rect x="0.00" y="23" width="65.27" height="12" fill="#5e5086"/><rect x="65.27" y="23" width="50.09" height="12" fill="#ef7a08"/><rect x="115.36" y="23" width="41.93" height="12" fill="#f34b7d"/><rect x="157.29" y="23" width="36.39" height="12" fill="#315665"/><rect x="193.68" y="23" width="34.37" height="12" fill="#b07219"/><rect x="228.05" y="23" width="14.28" height="12" fill="#000080"/><rect x="242.33" y="23" width="11.10" height="12" fill="#1a7f37"/><rect x="253.43" y="23" width="10.98" height="12" fill="#555555"/><rect x="264.41" y="23" width="3.17" height="12" fill="#3572A5"/><rect x="267.58" y="23" width="2.95" height="12" fill="#FEFE00"/><rect x="270.53" y="23" width="1.92" height="12" fill="#b845fc"/><rect x="272.45" y="23" width="1.92" height="12" fill="#89e051"/><rect x="274.36" y="23" width="5.64" height="12" fill="#8b949e"/></g></svg>