<svg xmlns="http://www.w3.org/2000/svg" width="280" height="35"><text x="0" y="14" font-family="-apple-system,BlinkMacSystemFont,Segoe UI,Helvetica,Arial,sans-serif" font-size="13" font-weight="600" fill="#3572A5">Programming</text><clipPath id="c"><rect y="23" width="280" height="12" rx="4"/></clipPath><g clip-path="url(#c)"><rect x="0.00" y="23" width="64.34" height="12" fill="#5e5086"/><rect x="64.34" y="23" width="54.47" height="12" fill="#ef7a08"/><rect x="118.81" y="23" width="40.97" height="12" fill="#f34b7d"/><rect x="159.78" y="23" width="35.56" height="12" fill="#315665"/><rect x="195.34" y="23" width="33.58" height="12" fill="#b07219"/><rect x="228.92" y="23" width="13.96" height="12" fill="#000080"/><rect x="242.88" y="23" width="10.84" height="12" fill="#1a7f37"/><rect x="253.72" y="23" width="10.73" height="12" fill="#555555"/><rect x="264.45" y="23" width="3.09" height="12" fill="#3572A5"/><rect x="267.54" y="23" width="2.88" height="12" fill="#FEFE00"/><rect x="270.42" y="23" width="1.97" height="12" fill="#89e051"/><rect x="272.40" y="23" width="1.88" height="12" fill="#b845fc"/><rect x="274.27" y="23" width="5.73" height="12" fill="#8b949e"/></g></svg>