<svg xmlns="http://www.w3.org/2000/svg" width="280" height="35"><text x="0" y="14" font-family="-apple-system,BlinkMacSystemFont,Segoe UI,Helvetica,Arial,sans-serif" font-size="13" font-weight="600" fill="#3572A5">Programming</text><clipPath id="c"><rect y="23" width="280" height="12" rx="4"/></clipPath><g clip-path="url(#c)"><rect x="0.00" y="23" width="61.80" height="12" fill="#5e5086"/><rect x="61.80" y="23" width="45.78" height="12" fill="#f34b7d"/><rect x="107.58" y="23" width="39.73" height="12" fill="#315665"/><rect x="147.30" y="23" width="38.87" height="12" fill="#ef7a08"/><rect x="186.17" y="23" width="37.52" height="12" fill="#b07219"/><rect x="223.69" y="23" width="15.59" height="12" fill="#000080"/><rect x="239.29" y="23" width="12.11" height="12" fill="#1a7f37"/><rect x="251.40" y="23" width="11.99" height="12" fill="#555555"/><rect x="263.39" y="23" width="3.46" height="12" fill="#3572A5"/><rect x="266.84" y="23" width="3.22" height="12" fill="#FEFE00"/><rect x="270.06" y="23" width="2.10" height="12" fill="#b845fc"/><rect x="272.16" y="23" width="1.71" height="12" fill="#89e051"/><rect x="273.87" y="23" width="6.13" height="12" fill="#8b949e"/></g></svg>