<svg xmlns="http://www.w3.org/2000/svg" width="280" height="35"><text x="0" y="14" font-family="-apple-system,BlinkMacSystemFont,Segoe UI,Helvetica,Arial,sans-serif" font-size="13" font-weight="600" fill="#3572A5">Programming</text><clipPath id="c"><rect y="23" width="280" height="12" rx="4"/></clipPath><g clip-path="url(#c)"><rect x="0.00" y="23" width="60.41" height="12" fill="#5e5086"/><rect x="60.41" y="23" width="46.07" height="12" fill="#f34b7d"/><rect x="106.48" y="23" width="39.98" height="12" fill="#315665"/><rect x="146.46" y="23" width="39.12" height="12" fill="#ef7a08"/><rect x="185.58" y="23" width="37.76" height="12" fill="#b07219"/><rect x="223.34" y="23" width="15.69" height="12" fill="#000080"/><rect x="239.03" y="23" width="12.19" height="12" fill="#1a7f37"/><rect x="251.22" y="23" width="12.06" height="12" fill="#555555"/><rect x="263.28" y="23" width="3.48" height="12" fill="#3572A5"/><rect x="266.76" y="23" width="3.24" height="12" fill="#FEFE00"/><rect x="270.00" y="23" width="2.11" height="12" fill="#b845fc"/><rect x="272.11" y="23" width="1.72" height="12" fill="#89e051"/><rect x="273.83" y="23" width="6.17" height="12" fill="#8b949e"/></g></svg>