<svg xmlns="http://www.w3.org/2000/svg" width="280" height="35"><text x="0" y="14" font-family="-apple-system,BlinkMacSystemFont,Segoe UI,Helvetica,Arial,sans-serif" font-size="13" font-weight="600" fill="#3572A5">Programming</text><clipPath id="c"><rect y="23" width="280" height="12" rx="4"/></clipPath><g clip-path="url(#c)"><rect x="0.00" y="23" width="54.09" height="12" fill="#c9510c"/><rect x="54.09" y="23" width="47.00" height="12" fill="#315665"/><rect x="101.08" y="23" width="45.98" height="12" fill="#ef7a08"/><rect x="147.06" y="23" width="44.39" height="12" fill="#b07219"/><rect x="191.45" y="23" width="24.10" height="12" fill="#5e5086"/><rect x="215.55" y="23" width="17.71" height="12" fill="#000080"/><rect x="233.26" y="23" width="14.33" height="12" fill="#1a7f37"/><rect x="247.59" y="23" width="7.14" height="12" fill="#1a7f37"/><rect x="254.73" y="23" width="7.04" height="12" fill="#555555"/><rect x="261.77" y="23" width="4.09" height="12" fill="#3572A5"/><rect x="265.86" y="23" width="3.81" height="12" fill="#FEFE00"/><rect x="269.66" y="23" width="2.48" height="12" fill="#b845fc"/><rect x="272.14" y="23" width="7.86" height="12" fill="#808080" fill-opacity="0.22"/></g></svg>