<svg xmlns="http://www.w3.org/2000/svg" width="280" height="35"><text x="0" y="14" font-family="-apple-system,BlinkMacSystemFont,Segoe UI,Helvetica,Arial,sans-serif" font-size="13" font-weight="600" fill="#3572A5">Programming</text><clipPath id="c"><rect y="23" width="280" height="12" rx="4"/></clipPath><g clip-path="url(#c)"><rect x="0.00" y="23" width="62.18" height="12" fill="#5e5086"/><rect x="62.18" y="23" width="45.70" height="12" fill="#f34b7d"/><rect x="107.88" y="23" width="39.66" height="12" fill="#315665"/><rect x="147.54" y="23" width="38.80" height="12" fill="#ef7a08"/><rect x="186.34" y="23" width="37.45" height="12" fill="#b07219"/><rect x="223.79" y="23" width="15.57" height="12" fill="#000080"/><rect x="239.36" y="23" width="12.09" height="12" fill="#1a7f37"/><rect x="251.45" y="23" width="11.97" height="12" fill="#555555"/><rect x="263.42" y="23" width="3.45" height="12" fill="#3572A5"/><rect x="266.87" y="23" width="3.21" height="12" fill="#FEFE00"/><rect x="270.08" y="23" width="2.09" height="12" fill="#b845fc"/><rect x="272.17" y="23" width="1.71" height="12" fill="#89e051"/><rect x="273.88" y="23" width="6.12" height="12" fill="#8b949e"/></g></svg>