<svg xmlns="http://www.w3.org/2000/svg" width="280" height="35"><text x="0" y="14" font-family="-apple-system,BlinkMacSystemFont,Segoe UI,Helvetica,Arial,sans-serif" font-size="13" font-weight="600" fill="#3572A5">Programming</text><clipPath id="c"><rect y="23" width="280" height="12" rx="4"/></clipPath><g clip-path="url(#c)"><rect x="0.00" y="23" width="57.07" height="12" fill="#5e5086"/><rect x="57.07" y="23" width="46.83" height="12" fill="#f34b7d"/><rect x="103.89" y="23" width="40.64" height="12" fill="#315665"/><rect x="144.53" y="23" width="39.76" height="12" fill="#ef7a08"/><rect x="184.29" y="23" width="38.38" height="12" fill="#b07219"/><rect x="222.67" y="23" width="15.79" height="12" fill="#000080"/><rect x="238.45" y="23" width="12.39" height="12" fill="#1a7f37"/><rect x="250.85" y="23" width="12.26" height="12" fill="#555555"/><rect x="263.11" y="23" width="3.53" height="12" fill="#3572A5"/><rect x="266.64" y="23" width="3.29" height="12" fill="#FEFE00"/><rect x="269.93" y="23" width="2.14" height="12" fill="#b845fc"/><rect x="272.08" y="23" width="1.67" height="12" fill="#89e051"/><rect x="273.75" y="23" width="6.25" height="12" fill="#8b949e"/></g></svg>