<svg xmlns="http://www.w3.org/2000/svg" width="280" height="35"><text x="0" y="14" font-family="-apple-system,BlinkMacSystemFont,Segoe UI,Helvetica,Arial,sans-serif" font-size="13" font-weight="600" fill="#3572A5">Programming</text><clipPath id="c"><rect y="23" width="280" height="12" rx="4"/></clipPath><g clip-path="url(#c)"><rect x="0.00" y="23" width="63.01" height="12" fill="#5e5086"/><rect x="63.01" y="23" width="59.92" height="12" fill="#ef7a08"/><rect x="122.93" y="23" width="39.90" height="12" fill="#f34b7d"/><rect x="162.83" y="23" width="34.73" height="12" fill="#315665"/><rect x="197.55" y="23" width="32.70" height="12" fill="#b07219"/><rect x="230.25" y="23" width="13.59" height="12" fill="#000080"/><rect x="243.84" y="23" width="10.56" height="12" fill="#1a7f37"/><rect x="254.40" y="23" width="10.45" height="12" fill="#555555"/><rect x="264.85" y="23" width="3.01" height="12" fill="#3572A5"/><rect x="267.86" y="23" width="2.81" height="12" fill="#FEFE00"/><rect x="270.67" y="23" width="1.92" height="12" fill="#89e051"/><rect x="272.59" y="23" width="1.83" height="12" fill="#b845fc"/><rect x="274.41" y="23" width="5.59" height="12" fill="#8b949e"/></g></svg>