<svg xmlns="http://www.w3.org/2000/svg" width="280" height="35"><text x="0" y="14" font-family="-apple-system,BlinkMacSystemFont,Segoe UI,Helvetica,Arial,sans-serif" font-size="13" font-weight="600" fill="#3572A5">Programming</text><clipPath id="c"><rect y="23" width="280" height="12" rx="4"/></clipPath><g clip-path="url(#c)"><rect x="0.00" y="23" width="65.87" height="12" fill="#5e5086"/><rect x="65.87" y="23" width="44.88" height="12" fill="#f34b7d"/><rect x="110.75" y="23" width="38.94" height="12" fill="#315665"/><rect x="149.69" y="23" width="38.10" height="12" fill="#ef7a08"/><rect x="187.79" y="23" width="36.78" height="12" fill="#b07219"/><rect x="224.57" y="23" width="15.28" height="12" fill="#000080"/><rect x="239.86" y="23" width="11.88" height="12" fill="#1a7f37"/><rect x="251.73" y="23" width="11.75" height="12" fill="#555555"/><rect x="263.48" y="23" width="3.39" height="12" fill="#3572A5"/><rect x="266.87" y="23" width="3.16" height="12" fill="#FEFE00"/><rect x="270.03" y="23" width="2.06" height="12" fill="#b845fc"/><rect x="272.08" y="23" width="1.90" height="12" fill="#89e051"/><rect x="273.98" y="23" width="6.02" height="12" fill="#8b949e"/></g></svg>