<svg xmlns="http://www.w3.org/2000/svg" width="280" height="35"><text x="0" y="14" font-family="-apple-system,BlinkMacSystemFont,Segoe UI,Helvetica,Arial,sans-serif" font-size="13" font-weight="600" fill="#3572A5">Programming</text><clipPath id="c"><rect y="23" width="280" height="12" rx="4"/></clipPath><g clip-path="url(#c)"><rect x="0.00" y="23" width="68.83" height="12" fill="#5e5086"/><rect x="68.83" y="23" width="44.22" height="12" fill="#f34b7d"/><rect x="113.05" y="23" width="38.38" height="12" fill="#315665"/><rect x="151.43" y="23" width="37.55" height="12" fill="#ef7a08"/><rect x="188.98" y="23" width="36.25" height="12" fill="#b07219"/><rect x="225.22" y="23" width="15.06" height="12" fill="#000080"/><rect x="240.29" y="23" width="11.70" height="12" fill="#1a7f37"/><rect x="251.99" y="23" width="11.58" height="12" fill="#555555"/><rect x="263.57" y="23" width="3.34" height="12" fill="#3572A5"/><rect x="266.91" y="23" width="3.11" height="12" fill="#FEFE00"/><rect x="270.02" y="23" width="2.03" height="12" fill="#b845fc"/><rect x="272.04" y="23" width="2.01" height="12" fill="#89e051"/><rect x="274.05" y="23" width="5.95" height="12" fill="#8b949e"/></g></svg>