<svg xmlns="http://www.w3.org/2000/svg" width="280" height="35"><text x="0" y="14" font-family="-apple-system,BlinkMacSystemFont,Segoe UI,Helvetica,Arial,sans-serif" font-size="13" font-weight="600" fill="#3572A5">Programming</text><clipPath id="c"><rect y="23" width="280" height="12" rx="4"/></clipPath><g clip-path="url(#c)"><rect x="0.00" y="23" width="53.99" height="12" fill="#f34b7d"/><rect x="53.99" y="23" width="46.86" height="12" fill="#315665"/><rect x="100.85" y="23" width="45.84" height="12" fill="#ef7a08"/><rect x="146.69" y="23" width="44.25" height="12" fill="#b07219"/><rect x="190.94" y="23" width="24.03" height="12" fill="#5e5086"/><rect x="214.97" y="23" width="18.10" height="12" fill="#000080"/><rect x="233.06" y="23" width="14.29" height="12" fill="#1a7f37"/><rect x="247.35" y="23" width="14.14" height="12" fill="#555555"/><rect x="261.49" y="23" width="4.08" height="12" fill="#3572A5"/><rect x="265.56" y="23" width="3.80" height="12" fill="#FEFE00"/><rect x="269.36" y="23" width="2.47" height="12" fill="#b845fc"/><rect x="271.83" y="23" width="1.39" height="12" fill="#89e051"/><rect x="273.23" y="23" width="6.77" height="12" fill="#8b949e"/></g></svg>